# xmcd
#
# Track frame offsets:
#	150
#	9884
#	20797
#	31447
#	42585
#	54885
#	66726
#	77315
#	89220
#	100642
#	113097
#	125588
#
# Disc length: 1824 seconds
#
# Revision: 0
# Processed by: cddbd v1.4PL0 Copyright (c) Steve Scherf et al.
# Submitted via: dBpowerAMP V4.0
#
DISCID=9a071e0c
DTITLE=Legends of Blues - Risque Blues
DYEAR=2003
DGENRE=Blues
TTITLE0=My Big Ten-Inch
TTITLE1=60 Minute Man
TTITLE2=Wasn't That Good
TTITLE3=It Ain't The Meat
TTITLE4=Don't STop Dan
TTITLE5=Pretty Baby
TTITLE6=Lovin' Machine
TTITLE7=I Want a Bowlegged Woman
TTITLE8=Rocket 69
TTITLE9=Something's Gone Wrong With My Lovin' Machine
TTITLE10=Keep on Churnin' (Till the Butter Comes)
TTITLE11=Silent George
EXTD=Chilmark Music B-305
EXTT0=
EXTT1=
EXTT2=
EXTT3=
EXTT4=
EXTT5=
EXTT6=
EXTT7=
EXTT8=
EXTT9=
EXTT10=
EXTT11=
PLAYORDER=
